<svg xmlns="http://www.w3.org/2000/svg" width="1000" height="720" viewBox="0 0 1000 720"><defs><linearGradient id="a" x2="1" y2="1"><stop stop-color="#232923"/><stop offset="1" stop-color="#161a17"/></linearGradient><pattern id="b" width="40" height="40" patternUnits="userSpaceOnUse"><path fill="none" stroke="#a3b291" stroke-opacity=".085" d="M40 0H0v40"/></pattern></defs><path fill="url(#a)" d="M0 0h1000v720H0z"/><path fill="url(#b)" d="M0 0h1000v720H0z"/><text x="48" y="52" fill="#a8b1a3" font-family="monospace" font-size="12" letter-spacing="2">FIG. 002 / ARCHITECTURAL GRAMMAR</text><text x="48" y="675" fill="#a8b1a3" font-family="monospace" font-size="12" letter-spacing="2">FOOTPRINT → RIDGE → REPEAT</text><path fill="#1c211d" stroke="#5b6756" d="m330 315 99 42-79 57-99-42z"/><path fill="none" stroke="#97a88a" stroke-opacity=".65" d="M330 232v83M429 274v83M350 331v83M251 289v83"/><path fill="#323b2e" stroke="#bdcba8" stroke-width="1.1" d="m330 232-30-45-49 102 99 42 49-102 30 45Z"/><path fill="none" stroke="#d5dfc6" d="m300 187 99 42"/><path fill="none" stroke="#d5dfc6" stroke-opacity=".8" d="m399 229-49 102"/><path fill="none" stroke="#9bab88" stroke-opacity=".35" d="m316.5 194-49 102M333 201l-49 102M349.5 208l-49 102M366 215l-49 102M382.5 222l-49 102"/><path fill="#1c211d" stroke="#5b6756" d="m449 366 99 42-79 57-99-42z"/><path fill="none" stroke="#97a88a" stroke-opacity=".65" d="M449 283v83M548 325v83M469 382v83M370 340v83"/><path fill="#323b2e" stroke="#bdcba8" stroke-width="1.1" d="m449 283-30-45-49 102 99 42 49-102 30 45Z"/><path fill="none" stroke="#d5dfc6" d="m419 238 99 42"/><path fill="none" stroke="#d5dfc6" stroke-opacity=".8" d="m518 280-49 102"/><path fill="none" stroke="#9bab88" stroke-opacity=".35" d="m435.5 245-49 102M452 252l-49 102M468.5 259l-49 102M485 266l-49 102M501.5 273l-49 102"/><path fill="#1c211d" stroke="#5b6756" d="m568 417 99 42-79 57-99-42z"/><path fill="none" stroke="#97a88a" stroke-opacity=".65" d="M568 334v83M667 376v83M588 433v83M489 391v83"/><path fill="#323b2e" stroke="#bdcba8" stroke-width="1.1" d="m568 334-30-45-49 102 99 42 49-102 30 45Z"/><path fill="none" stroke="#d5dfc6" d="m538 289 99 42"/><path fill="none" stroke="#d5dfc6" stroke-opacity=".8" d="m637 331-49 102"/><path fill="none" stroke="#9bab88" stroke-opacity=".35" d="m554.5 296-49 102M571 303l-49 102M587.5 310l-49 102M604 317l-49 102M620.5 324l-49 102"/><path fill="#1c211d" stroke="#5b6756" d="m687 468 99 42-79 57-99-42z"/><path fill="none" stroke="#97a88a" stroke-opacity=".65" d="M687 385v83M786 427v83M707 484v83M608 442v83"/><path fill="#323b2e" stroke="#bdcba8" stroke-width="1.1" d="m687 385-30-45-49 102 99 42 49-102 30 45Z"/><path fill="none" stroke="#d5dfc6" d="m657 340 99 42"/><path fill="none" stroke="#d5dfc6" stroke-opacity=".8" d="m756 382-49 102"/><path fill="none" stroke="#9bab88" stroke-opacity=".35" d="m673.5 347-49 102M690 354l-49 102M706.5 361l-49 102M723 368l-49 102M739.5 375l-49 102"/><path fill="#1c211d" stroke="#5b6756" d="m235 383 99 42-79 57-99-42z"/><path fill="none" stroke="#97a88a" stroke-opacity=".65" d="M235 300v83M334 342v83M255 399v83M156 357v83"/><path fill="#323b2e" stroke="#bdcba8" stroke-width="1.1" d="m235 300-30-45-49 102 99 42 49-102 30 45Z"/><path fill="none" stroke="#d5dfc6" d="m205 255 99 42"/><path fill="none" stroke="#d5dfc6" stroke-opacity=".8" d="m304 297-49 102"/><path fill="none" stroke="#9bab88" stroke-opacity=".35" d="m221.5 262-49 102M238 269l-49 102M254.5 276l-49 102M271 283l-49 102M287.5 290l-49 102"/><path fill="#1c211d" stroke="#5b6756" d="m354 434 99 42-79 57-99-42z"/><path fill="none" stroke="#97a88a" stroke-opacity=".65" d="M354 351v83M453 393v83M374 450v83M275 408v83"/><path fill="#323b2e" stroke="#bdcba8" stroke-width="1.1" d="m354 351-30-45-49 102 99 42 49-102 30 45Z"/><path fill="none" stroke="#d5dfc6" d="m324 306 99 42"/><path fill="none" stroke="#d5dfc6" stroke-opacity=".8" d="m423 348-49 102"/><path fill="none" stroke="#9bab88" stroke-opacity=".35" d="m340.5 313-49 102M357 320l-49 102M373.5 327l-49 102M390 334l-49 102M406.5 341l-49 102"/><path fill="#1c211d" stroke="#5b6756" d="m473 485 99 42-79 57-99-42z"/><path fill="none" stroke="#97a88a" stroke-opacity=".65" d="M473 402v83M572 444v83M493 501v83M394 459v83"/><path fill="#323b2e" stroke="#bdcba8" stroke-width="1.1" d="m473 402-30-45-49 102 99 42 49-102 30 45Z"/><path fill="none" stroke="#d5dfc6" d="m443 357 99 42"/><path fill="none" stroke="#d5dfc6" stroke-opacity=".8" d="m542 399-49 102"/><path fill="none" stroke="#9bab88" stroke-opacity=".35" d="m459.5 364-49 102M476 371l-49 102M492.5 378l-49 102M509 385l-49 102M525.5 392l-49 102"/><path fill="#1c211d" stroke="#5b6756" d="m592 536 99 42-79 57-99-42z"/><path fill="none" stroke="#97a88a" stroke-opacity=".65" d="M592 453v83M691 495v83M612 552v83M513 510v83"/><path fill="#323b2e" stroke="#bdcba8" stroke-width="1.1" d="m592 453-30-45-49 102 99 42 49-102 30 45Z"/><path fill="none" stroke="#d5dfc6" d="m562 408 99 42"/><path fill="none" stroke="#d5dfc6" stroke-opacity=".8" d="m661 450-49 102"/><path fill="none" stroke="#9bab88" stroke-opacity=".35" d="m578.5 415-49 102M595 422l-49 102M611.5 429l-49 102M628 436l-49 102M644.5 443l-49 102"/><path fill="#1c211d" stroke="#5b6756" d="m140 451 99 42-79 57-99-42z"/><path fill="none" stroke="#97a88a" stroke-opacity=".65" d="M140 368v83M239 410v83M160 467v83M61 425v83"/><path fill="#323b2e" stroke="#bdcba8" stroke-width="1.1" d="m140 368-30-45-49 102 99 42 49-102 30 45Z"/><path fill="none" stroke="#d5dfc6" d="m110 323 99 42"/><path fill="none" stroke="#d5dfc6" stroke-opacity=".8" d="m209 365-49 102"/><path fill="none" stroke="#9bab88" stroke-opacity=".35" d="m126.5 330-49 102M143 337 94 439M159.5 344l-49 102M176 351l-49 102M192.5 358l-49 102"/><path fill="#1c211d" stroke="#5b6756" d="m259 502 99 42-79 57-99-42z"/><path fill="none" stroke="#97a88a" stroke-opacity=".65" d="M259 419v83M358 461v83M279 518v83M180 476v83"/><path fill="#323b2e" stroke="#bdcba8" stroke-width="1.1" d="m259 419-30-45-49 102 99 42 49-102 30 45Z"/><path fill="none" stroke="#d5dfc6" d="m229 374 99 42"/><path fill="none" stroke="#d5dfc6" stroke-opacity=".8" d="m328 416-49 102"/><path fill="none" stroke="#9bab88" stroke-opacity=".35" d="m245.5 381-49 102M262 388l-49 102M278.5 395l-49 102M295 402l-49 102M311.5 409l-49 102"/><path fill="#1c211d" stroke="#5b6756" d="m378 553 99 42-79 57-99-42z"/><path fill="none" stroke="#97a88a" stroke-opacity=".65" d="M378 470v83M477 512v83M398 569v83M299 527v83"/><path fill="#323b2e" stroke="#bdcba8" stroke-width="1.1" d="m378 470-30-45-49 102 99 42 49-102 30 45Z"/><path fill="none" stroke="#d5dfc6" d="m348 425 99 42"/><path fill="none" stroke="#d5dfc6" stroke-opacity=".8" d="m447 467-49 102"/><path fill="none" stroke="#9bab88" stroke-opacity=".35" d="m364.5 432-49 102M381 439l-49 102M397.5 446l-49 102M414 453l-49 102M430.5 460l-49 102"/><path fill="#1c211d" stroke="#5b6756" d="m497 604 99 42-79 57-99-42z"/><path fill="none" stroke="#97a88a" stroke-opacity=".65" d="M497 521v83M596 563v83M517 620v83M418 578v83"/><path fill="#323b2e" stroke="#bdcba8" stroke-width="1.1" d="m497 521-30-45-49 102 99 42 49-102 30 45Z"/><path fill="none" stroke="#d5dfc6" d="m467 476 99 42"/><path fill="none" stroke="#d5dfc6" stroke-opacity=".8" d="m566 518-49 102"/><path fill="none" stroke="#9bab88" stroke-opacity=".35" d="m483.5 483-49 102M500 490l-49 102M516.5 497l-49 102M533 504l-49 102M549.5 511l-49 102"/><text x="733" y="152" fill="#c1d3a8" font-family="monospace" font-size="12" letter-spacing="2">PITCH: θ</text><path fill="none" stroke="#c1d3a8" stroke-opacity=".6" d="m747 164-77 75"/></svg>